<svg width="19" height="17" viewBox="0 0 19 17" fill="none" xmlns="http://www.w3.org/2000/svg">
<path d="M9.33602 4.59599V11.72M12.899 8.15799H5.77402M0.650024 2.99999C0.650024 2.37674 0.897613 1.779 1.33832 1.33829C1.77903 0.897583 2.37677 0.649994 3.00002 0.649994H15.673C16.2963 0.649994 16.894 0.897583 17.3347 1.33829C17.7754 1.779 18.023 2.37674 18.023 2.99999V13.316C18.023 13.9393 17.7754 14.537 17.3347 14.9777C16.894 15.4184 16.2963 15.666 15.673 15.666H3.00002C2.37677 15.666 1.77903 15.4184 1.33832 14.9777C0.897613 14.537 0.650024 13.9393 0.650024 13.316V2.99999Z" stroke="currentColor" stroke-width="1.3"/>
</svg>
