<svg width="20" height="20" viewBox="0 0 20 20" fill="none" xmlns="http://www.w3.org/2000/svg">
<path d="M13.7284 4.50667L15.4934 6.27084M14.8634 2.9525L10.0909 7.725C9.84353 7.97071 9.67522 8.28468 9.60752 8.62667L9.16669 10.8333L11.3734 10.3917C11.7153 10.324 12.0293 10.1557 12.275 9.90834L17.0475 5.13667C17.3244 4.84446 17.4763 4.45572 17.4709 4.05321C17.4654 3.65069 17.3031 3.26619 17.0185 2.98154C16.7338 2.6969 16.3493 2.53459 15.9468 2.52916C15.5443 2.52374 15.1556 2.67563 14.8634 2.9525Z" stroke="currentColor" stroke-linecap="round" stroke-linejoin="round"/>
<path d="M15.8333 12.5V15C15.8333 15.442 15.6577 15.8659 15.3452 16.1785C15.0326 16.4911 14.6087 16.6667 14.1666 16.6667H4.99998C4.55795 16.6667 4.13403 16.4911 3.82147 16.1785C3.50891 15.8659 3.33331 15.442 3.33331 15V5.83332C3.33331 5.3913 3.50891 4.96737 3.82147 4.65481C4.13403 4.34225 4.55795 4.16666 4.99998 4.16666H7.49998" stroke="currentColor" stroke-linecap="round" stroke-linejoin="round"/>
</svg>
