<svg width="16" height="17" viewBox="0 0 16 17" fill="none" xmlns="http://www.w3.org/2000/svg">
<path d="M8.66536 4.8776L7.92167 3.39022C7.70763 2.96214 7.60061 2.74809 7.44094 2.59171C7.29975 2.45342 7.12958 2.34825 6.94275 2.28381C6.73147 2.21094 6.49217 2.21094 6.01356 2.21094H3.46536C2.71863 2.21094 2.34526 2.21094 2.06004 2.35626C1.80916 2.48409 1.60519 2.68807 1.47736 2.93895C1.33203 3.22417 1.33203 3.59753 1.33203 4.34427V4.8776M1.33203 4.8776H11.4654C12.5855 4.8776 13.1455 4.8776 13.5733 5.09559C13.9497 5.28734 14.2556 5.5933 14.4474 5.96962C14.6654 6.39745 14.6654 6.9575 14.6654 8.0776V11.0109C14.6654 12.131 14.6654 12.6911 14.4474 13.1189C14.2556 13.4952 13.9497 13.8012 13.5733 13.993C13.1455 14.2109 12.5855 14.2109 11.4654 14.2109H4.53203C3.41193 14.2109 2.85187 14.2109 2.42405 13.993C2.04773 13.8012 1.74176 13.4952 1.55002 13.1189C1.33203 12.6911 1.33203 12.131 1.33203 11.0109V4.8776Z" stroke="currentColor" stroke-width="1.33" stroke-linecap="round" stroke-linejoin="round"/>
</svg>
