<svg width="20" height="20" viewBox="0 0 20 20" fill="none" xmlns="http://www.w3.org/2000/svg">
<path fill-rule="evenodd" clip-rule="evenodd" d="M6.45835 6.25001C6.45835 5.78491 6.54996 5.32437 6.72795 4.89467C6.90593 4.46498 7.16681 4.07455 7.49568 3.74567C7.82456 3.4168 8.21499 3.15592 8.64468 2.97794C9.07438 2.79995 9.53492 2.70834 10 2.70834C10.4651 2.70834 10.9257 2.79995 11.3554 2.97794C11.7851 3.15592 12.1755 3.4168 12.5044 3.74567C12.8332 4.07455 13.0941 4.46498 13.2721 4.89467C13.4501 5.32437 13.5417 5.78491 13.5417 6.25001C13.5417 7.18932 13.1685 8.09016 12.5044 8.75435C11.8402 9.41854 10.9393 9.79168 10 9.79168C9.06071 9.79168 8.15988 9.41854 7.49568 8.75435C6.83149 8.09016 6.45835 7.18932 6.45835 6.25001ZM10 3.95834C9.39223 3.95834 8.80934 4.19979 8.37957 4.62956C7.9498 5.05933 7.70835 5.64222 7.70835 6.25001C7.70835 6.8578 7.9498 7.44069 8.37957 7.87046C8.80934 8.30023 9.39223 8.54168 10 8.54168C10.6078 8.54168 11.1907 8.30023 11.6205 7.87046C12.0502 7.44069 12.2917 6.8578 12.2917 6.25001C12.2917 5.64222 12.0502 5.05933 11.6205 4.62956C11.1907 4.19979 10.6078 3.95834 10 3.95834ZM6.66669 12.2917C6.16941 12.2917 5.69249 12.4892 5.34086 12.8409C4.98923 13.1925 4.79169 13.6694 4.79169 14.1667V15.1567C4.79169 15.1717 4.80252 15.185 4.81752 15.1875C8.25002 15.7475 11.7509 15.7475 15.1825 15.1875C15.1896 15.1859 15.1959 15.182 15.2006 15.1764C15.2053 15.1709 15.208 15.1639 15.2084 15.1567V14.1667C15.2084 13.6694 15.0108 13.1925 14.6592 12.8409C14.3075 12.4892 13.8306 12.2917 13.3334 12.2917H13.05C13.0277 12.2921 13.0056 12.2954 12.9842 12.3017L12.2634 12.5375C10.7927 13.0177 9.20737 13.0177 7.73669 12.5375L7.01502 12.3017C6.99416 12.2956 6.97259 12.2922 6.95085 12.2917H6.66669ZM3.54169 14.1667C3.54169 13.3379 3.87093 12.543 4.45698 11.957C5.04303 11.3709 5.83789 11.0417 6.66669 11.0417H6.95002C7.10558 11.0422 7.25669 11.0661 7.40335 11.1133L8.12502 11.3492C9.34338 11.7469 10.6567 11.7469 11.875 11.3492L12.5967 11.1133C12.7425 11.0658 12.8959 11.0417 13.0492 11.0417H13.3334C14.1622 11.0417 14.957 11.3709 15.5431 11.957C16.1291 12.543 16.4584 13.3379 16.4584 14.1667V15.1567C16.4584 15.785 16.0034 16.32 15.3834 16.4208C11.8181 17.0028 8.18198 17.0028 4.61669 16.4208C4.31684 16.3715 4.04423 16.2174 3.84737 15.9859C3.65052 15.7544 3.54219 15.4606 3.54169 15.1567V14.1667Z" fill="currentColor"/>
</svg>
