<svg width="20" height="20" viewBox="0 0 20 20" fill="none" xmlns="http://www.w3.org/2000/svg">
<path d="M6.27502 5.44167C6.38542 5.32319 6.44552 5.16649 6.44267 5.00457C6.43981 4.84265 6.37422 4.68816 6.2597 4.57365C6.14519 4.45914 5.99071 4.39355 5.82879 4.39069C5.66687 4.38784 5.51017 4.44794 5.39169 4.55834L3.72502 6.225C3.60798 6.34219 3.54224 6.50105 3.54224 6.66667C3.54224 6.8323 3.60798 6.99115 3.72502 7.10834L5.39169 8.775C5.4489 8.83641 5.51791 8.88566 5.59457 8.91982C5.67124 8.95398 5.754 8.97235 5.83792 8.97383C5.92184 8.97531 6.00519 8.95987 6.08302 8.92844C6.16084 8.89701 6.23154 8.85022 6.29088 8.79087C6.35023 8.73152 6.39702 8.66083 6.42846 8.583C6.45989 8.50518 6.47533 8.42182 6.47385 8.3379C6.47237 8.25398 6.454 8.17122 6.41984 8.09456C6.38568 8.01789 6.33643 7.94889 6.27502 7.89167L5.67502 7.29167H14.1667C14.3324 7.29167 14.4914 7.22582 14.6086 7.10861C14.7258 6.9914 14.7917 6.83243 14.7917 6.66667C14.7917 6.50091 14.7258 6.34194 14.6086 6.22473C14.4914 6.10752 14.3324 6.04167 14.1667 6.04167H5.67502L6.27502 5.44167ZM13.725 11.225C13.608 11.3422 13.5422 11.501 13.5422 11.6667C13.5422 11.8323 13.608 11.9911 13.725 12.1083L14.325 12.7083H5.83335C5.66759 12.7083 5.50862 12.7742 5.39141 12.8914C5.2742 13.0086 5.20835 13.1676 5.20835 13.3333C5.20835 13.4991 5.2742 13.6581 5.39141 13.7753C5.50862 13.8925 5.66759 13.9583 5.83335 13.9583H14.325L13.725 14.5583C13.6636 14.6156 13.6144 14.6846 13.5802 14.7612C13.546 14.8379 13.5277 14.9206 13.5262 15.0046C13.5247 15.0885 13.5401 15.1718 13.5716 15.2497C13.603 15.3275 13.6498 15.3982 13.7092 15.4575C13.7685 15.5169 13.8392 15.5637 13.917 15.5951C13.9948 15.6265 14.0782 15.642 14.1621 15.6405C14.246 15.639 14.3288 15.6206 14.4055 15.5865C14.4821 15.5523 14.5511 15.5031 14.6084 15.4417L16.275 13.775C16.3921 13.6578 16.4578 13.499 16.4578 13.3333C16.4578 13.1677 16.3921 13.0089 16.275 12.8917L14.6084 11.225C14.4912 11.108 14.3323 11.0422 14.1667 11.0422C14.0011 11.0422 13.8422 11.108 13.725 11.225Z" fill="currentColor"/>
</svg>
