<svg width="15" height="16" viewBox="0 0 15 16" fill="none" xmlns="http://www.w3.org/2000/svg">
<path d="M11.1667 15.8333L10 14.6667L11.3125 13.3333L10 12.0208L11.1667 10.8333L12.5 12.1667L13.8125 10.8333L15 12.0208L13.6667 13.3333L15 14.6667L13.8125 15.8333L12.5 14.5208L11.1667 15.8333ZM2.5 14.1667C2.73611 14.1667 2.93403 14.0868 3.09375 13.9271C3.25347 13.7674 3.33333 13.5694 3.33333 13.3333C3.33333 13.0972 3.25347 12.8993 3.09375 12.7396C2.93403 12.5799 2.73611 12.5 2.5 12.5C2.26389 12.5 2.06597 12.5799 1.90625 12.7396C1.74653 12.8993 1.66667 13.0972 1.66667 13.3333C1.66667 13.5694 1.74653 13.7674 1.90625 13.9271C2.06597 14.0868 2.26389 14.1667 2.5 14.1667ZM2.5 15.8333C1.80556 15.8333 1.21528 15.5903 0.729167 15.1042C0.243056 14.6181 0 14.0278 0 13.3333C0 12.6389 0.243056 12.0486 0.729167 11.5625C1.21528 11.0764 1.80556 10.8333 2.5 10.8333C3.01389 10.8333 3.48264 10.9757 3.90625 11.2604C4.32986 11.5451 4.63889 11.9306 4.83333 12.4167C5.375 12.2639 5.81597 11.9653 6.15625 11.5208C6.49653 11.0764 6.66667 10.5694 6.66667 10V6.66667C6.66667 5.51389 7.07292 4.53125 7.88542 3.71875C8.69792 2.90625 9.68056 2.5 10.8333 2.5H11.7917L10.4792 1.1875L11.6667 0L15 3.33333L11.6667 6.66667L10.4792 5.5L11.7917 4.16667H10.8333C10.1389 4.16667 9.54861 4.40972 9.0625 4.89583C8.57639 5.38194 8.33333 5.97222 8.33333 6.66667V10C8.33333 11.0139 8.00694 11.9062 7.35417 12.6771C6.70139 13.4479 5.875 13.9236 4.875 14.1042C4.70833 14.6181 4.40625 15.0347 3.96875 15.3542C3.53125 15.6736 3.04167 15.8333 2.5 15.8333ZM1.16667 5.83333L0 4.66667L1.3125 3.33333L0 2.02083L1.16667 0.833333L2.5 2.16667L3.8125 0.833333L5 2.02083L3.66667 3.33333L5 4.66667L3.8125 5.83333L2.5 4.52083L1.16667 5.83333Z" fill="currentColor"/>
</svg>
