<svg width="20" height="20" viewBox="0 0 20 20" fill="none" xmlns="http://www.w3.org/2000/svg">
<path fill-rule="evenodd" clip-rule="evenodd" d="M11.908 12.8717C10.8291 13.7686 9.4615 14.2013 8.08599 14.0807C6.71047 13.9601 5.43149 13.2955 4.51171 12.2233C3.59193 11.1512 3.10117 9.75282 3.14023 8.3155C3.17928 6.87819 3.74519 5.511 4.72172 4.49474C5.69825 3.47848 7.01128 2.89028 8.39114 2.85095C9.771 2.81162 11.1129 3.32415 12.1414 4.28326C13.1698 5.24238 13.8066 6.57528 13.9211 8.00822C14.0355 9.44116 13.6189 10.8654 12.7568 11.9883L16.8816 16.2842C16.9908 16.4021 17.0512 16.56 17.0498 16.7239C17.0484 16.8877 16.9852 17.0445 16.8739 17.1603C16.7626 17.2761 16.6121 17.3418 16.4547 17.3431C16.2974 17.3445 16.1459 17.2814 16.0328 17.1675L11.908 12.8717ZM5.56798 11.57C4.98078 10.9583 4.58086 10.1789 4.41877 9.33049C4.25667 8.48206 4.33968 7.60261 4.6573 6.8033C4.97492 6.004 5.51289 5.32072 6.20323 4.83983C6.89356 4.35894 7.70525 4.10203 8.53572 4.10156C9.36619 4.1011 10.1782 4.3571 10.869 4.83721C11.5598 5.31733 12.0985 6 12.4169 6.79895C12.7354 7.5979 12.8193 8.47725 12.6581 9.32587C12.4969 10.1745 12.0978 10.9543 11.5112 11.5667L11.5072 11.57L11.504 11.5742C10.716 12.3929 9.64816 12.8523 8.53516 12.8516C7.42215 12.8508 6.35496 12.3898 5.56798 11.57Z" fill="currentColor"/>
</svg>
