<svg width="20" height="20" viewBox="0 0 20 20" fill="none" xmlns="http://www.w3.org/2000/svg">
<path d="M8.33335 1.875C8.16759 1.875 8.00862 1.94085 7.89141 2.05806C7.7742 2.17527 7.70835 2.33424 7.70835 2.5V3.125H4.16669C4.00093 3.125 3.84196 3.19085 3.72475 3.30806C3.60753 3.42527 3.54169 3.58424 3.54169 3.75C3.54169 3.91576 3.60753 4.07473 3.72475 4.19194C3.84196 4.30915 4.00093 4.375 4.16669 4.375H15.8334C15.9991 4.375 16.1581 4.30915 16.2753 4.19194C16.3925 4.07473 16.4584 3.91576 16.4584 3.75C16.4584 3.58424 16.3925 3.42527 16.2753 3.30806C16.1581 3.19085 15.9991 3.125 15.8334 3.125H12.2917V2.5C12.2917 2.33424 12.2258 2.17527 12.1086 2.05806C11.9914 1.94085 11.8324 1.875 11.6667 1.875H8.33335ZM8.33335 8.875C8.49911 8.875 8.65808 8.94085 8.77529 9.05806C8.89251 9.17527 8.95835 9.33424 8.95835 9.5V15.3333C8.95835 15.4991 8.89251 15.6581 8.77529 15.7753C8.65808 15.8925 8.49911 15.9583 8.33335 15.9583C8.16759 15.9583 8.00862 15.8925 7.89141 15.7753C7.7742 15.6581 7.70835 15.4991 7.70835 15.3333V9.5C7.70835 9.33424 7.7742 9.17527 7.89141 9.05806C8.00862 8.94085 8.16759 8.875 8.33335 8.875ZM12.2917 9.5C12.2917 9.33424 12.2258 9.17527 12.1086 9.05806C11.9914 8.94085 11.8324 8.875 11.6667 8.875C11.5009 8.875 11.342 8.94085 11.2247 9.05806C11.1075 9.17527 11.0417 9.33424 11.0417 9.5V15.3333C11.0417 15.4991 11.1075 15.6581 11.2247 15.7753C11.342 15.8925 11.5009 15.9583 11.6667 15.9583C11.8324 15.9583 11.9914 15.8925 12.1086 15.7753C12.2258 15.6581 12.2917 15.4991 12.2917 15.3333V9.5Z" fill="currentColor"/>
<path fill-rule="evenodd" clip-rule="evenodd" d="M4.99255 6.59749C5.00958 6.44456 5.08242 6.30329 5.19713 6.20073C5.31183 6.09817 5.46034 6.04153 5.61422 6.04166H14.3859C14.5398 6.04153 14.6883 6.09817 14.803 6.20073C14.9177 6.30329 14.9905 6.44456 15.0075 6.59749L15.1742 8.09916C15.4767 10.82 15.4767 13.5658 15.1742 16.2875L15.1575 16.435C15.0996 16.9601 14.8681 17.4509 14.4999 17.8298C14.1316 18.2086 13.6475 18.4538 13.1242 18.5267C11.0516 18.8173 8.94852 18.8173 6.87588 18.5267C6.35259 18.4538 5.86851 18.2086 5.50024 17.8298C5.13197 17.4509 4.90054 16.9601 4.84255 16.435L4.82588 16.2875C4.52362 13.5664 4.52362 10.8202 4.82588 8.09916L4.99255 6.59749ZM6.17338 7.29166L6.06838 8.23666C5.77629 10.8661 5.77629 13.5197 6.06838 16.1492L6.08505 16.2967C6.11221 16.5459 6.22182 16.7789 6.3965 16.9587C6.57117 17.1385 6.8009 17.2548 7.04922 17.2892C9.00755 17.5633 10.9934 17.5633 12.9509 17.2892C13.1991 17.2548 13.4287 17.1386 13.6034 16.959C13.778 16.7794 13.8877 16.5465 13.915 16.2975L13.9317 16.1492C14.2234 13.52 14.2234 10.8658 13.9317 8.23666L13.8267 7.29166H6.17338Z" fill="currentColor"/>
</svg>
