<svg width="20" height="20" viewBox="0 0 20 20" fill="none" xmlns="http://www.w3.org/2000/svg">
<path d="M16.2083 13.3333L14.9583 12.0417C15.5139 11.8889 15.9653 11.5938 16.3125 11.1563C16.6597 10.7188 16.8333 10.2083 16.8333 9.62501C16.8333 8.93057 16.5903 8.34029 16.1041 7.85418C15.618 7.36807 15.0278 7.12501 14.3333 7.12501H11V5.45834H14.3333C15.4861 5.45834 16.4687 5.86459 17.2812 6.67709C18.0937 7.48959 18.5 8.47223 18.5 9.62501C18.5 10.4167 18.2951 11.1458 17.8854 11.8125C17.4757 12.4792 16.9166 12.9861 16.2083 13.3333ZM13.375 10.4583L11.7083 8.79168H13.5V10.4583H13.375ZM16.6666 18.4583L1.33331 3.12501L2.49998 1.95834L17.8333 17.2917L16.6666 18.4583ZM9.33331 13.7917H5.99998C4.8472 13.7917 3.86456 13.3854 3.05206 12.5729C2.23956 11.7604 1.83331 10.7778 1.83331 9.62501C1.83331 8.66668 2.12498 7.81251 2.70831 7.06251C3.29165 6.31251 4.04165 5.81945 4.95831 5.58334L6.49998 7.12501H5.99998C5.30554 7.12501 4.71526 7.36807 4.22915 7.85418C3.74304 8.34029 3.49998 8.93057 3.49998 9.62501C3.49998 10.3195 3.74304 10.9097 4.22915 11.3958C4.71526 11.882 5.30554 12.125 5.99998 12.125H9.33331V13.7917ZM6.83331 10.4583V8.79168H8.18748L9.83331 10.4583H6.83331Z" fill="currentColor"/>
</svg>
